# xmcd
#
# Track frame offsets:
#	150
#	12557
#	26105
#	37565
#	50915
#	66725
#	79742
#	98637
#	112717
#	125225
#	138175
#	150202
#	165885
#	176470
#	190290
#
# Disc length: 2706 seconds
#
# Revision: 4
# Processed by: cddbd v1.5.2PL0 Copyright (c) Steve Scherf et al.
# Submitted via: EasyCDDAExtractor 2010.6.0.0
#
DISCID=ba0a900f
DTITLE=Various Artist - CLASSIC COUNTRY GOLDEN '70S [DISC 01]
DYEAR=2000
DGENRE=COUNTRY
TTITLE0=BILLIE JOE SPEARS - WHAT I'VE GOT IN MIND
TTITLE1=GLEN CAMPBELL - SOUTHERN NIGHTS
TTITLE2=WAYLON JENNINGS and WILLIE NELSON - MAMAS, DON'T LET YOUR BABIES GROW UP
TTITLE2=TO BE COWBOYS
TTITLE3=RONNIE MILSAP - (I'D BE A) LEGEND IN MY TIME
TTITLE4=DOLLY PARTON - HEARTBREAKER
TTITLE5=FREDDY FENDER - YOU'LL LOSE A GOOD THING
TTITLE6=TOM T. HALL - (OLD DOGS, CHILDREN AND) WATERMELON WINE
TTITLE7=GEORGE JONES - THE GRAND TOUR
TTITLE8=CHARLIE RICH - A VERY SPECIAL LOVE SONG
TTITLE9=CHARLEY PRIDE - SHE'S TOO GOOD TO BE TRUE
TTITLE10=CONWAY TWITTY and LORETTA LYNN - AFTER THE FIRE IS GONE
TTITLE11=DON WILLIAMS - TILL THE RIVERS ALL RUN DRY
TTITLE12=JERRY REED - WHEN YOU'RE HOT, YOU'RE HOT
TTITLE13=TAMMY WYNETTE - 'TIL I CAN MAKE IT ON MY OWN
TTITLE14=JERRY LEE LEWIS - CHANTILLY LACE
EXTD=
EXTT0=CD #BA0A900F1FAC02E0
EXTT1=
EXTT2=
EXTT3=
EXTT4=
EXTT5=
EXTT6=
EXTT7=
EXTT8=
EXTT9=
EXTT10=
EXTT11=
EXTT12=
EXTT13=
EXTT14=
PLAYORDER=
